<svg xmlns="http://www.w3.org/2000/svg" width="23.682" height="17.583" viewBox="0 0 23.682 17.583"><defs><style>.a{fill:#01b0f1;}</style></defs><g transform="translate(0 -55.239)"><g transform="translate(0 55.239)"><path class="a" d="M147.009,192.217a.968.968,0,0,0,0-1.935l-4.382-3.223,3.414,4.25A.97.97,0,0,0,147.009,192.217Z" transform="translate(-134.753 -179.781)"/><rect class="a" width="9.658" height="2.292" transform="translate(7.012 15.291)"/><path class="a" d="M20.214,58.707A11.844,11.844,0,0,0,1.481,72.822H3.694l1.619-.935L4.6,70.649l-2.081,1.2A10.413,10.413,0,0,1,1.365,67.08c0-.3.014-.6.039-.9l2.482.438.248-1.408-2.511-.443a10.472,10.472,0,0,1,2.857-5.132l1.7,2.028,1.1-.919L5.563,58.7a10.418,10.418,0,0,1,5.563-2.07v2.712h1.43V56.629a10.419,10.419,0,0,1,5.563,2.07L16.4,60.742l1.1.919,1.7-2.028a10.472,10.472,0,0,1,2.857,5.132l-2.511.443.248,1.408,2.482-.438c.025.3.039.6.039.9a10.411,10.411,0,0,1-1.151,4.771l-2.081-1.2-.715,1.238,1.619.935H22.2a11.853,11.853,0,0,0-1.988-14.114Z" transform="translate(0 -55.239)"/></g></g></svg>