<svg xmlns="http://www.w3.org/2000/svg" width="54.648" height="41.588" viewBox="0 0 54.648 41.588"><defs><style>.a{fill:#92a45c;}</style></defs><g transform="translate(0 -57.75)"><g transform="translate(0 57.75)"><path class="a" d="M47.976,57.75H6.683A6.688,6.688,0,0,0,0,64.433V92.655a6.688,6.688,0,0,0,6.683,6.683H47.965a6.688,6.688,0,0,0,6.683-6.683V64.444A6.681,6.681,0,0,0,47.976,57.75Zm3.63,34.905a3.634,3.634,0,0,1-3.63,3.63H6.683a3.634,3.634,0,0,1-3.63-3.63V64.444a3.634,3.634,0,0,1,3.63-3.63H47.965a3.634,3.634,0,0,1,3.63,3.63V92.655Z" transform="translate(0 -57.75)"/><path class="a" d="M83.913,123.562l13.365-11.986a1.529,1.529,0,0,0-2.047-2.273L76.8,125.846l-3.6-3.211c-.011-.011-.023-.023-.023-.034a2.261,2.261,0,0,0-.249-.215L58.3,109.292a1.53,1.53,0,1,0-2.035,2.284L69.79,123.664,56.323,136.271a1.533,1.533,0,0,0-.068,2.16,1.562,1.562,0,0,0,1.119.486,1.53,1.53,0,0,0,1.04-.407l13.67-12.788,3.709,3.313a1.522,1.522,0,0,0,2.035-.011l3.811-3.415,13.591,12.913a1.53,1.53,0,0,0,2.16-.057,1.533,1.533,0,0,0-.057-2.16Z" transform="translate(-49.448 -103.118)"/></g></g></svg>