<svg xmlns="http://www.w3.org/2000/svg" width="23" height="17.469" viewBox="0 0 23 17.469"><defs><style>.a{fill:#01b0f1;}</style></defs><g transform="translate(0 -58.95)"><g transform="translate(0 58.95)"><path class="a" d="M0,61.863V73.506a2.919,2.919,0,0,0,2.913,2.913h9.41a2.919,2.919,0,0,0,2.913-2.913V71.62a.577.577,0,0,0-1.154,0v1.886a1.768,1.768,0,0,1-1.764,1.764H2.913a1.768,1.768,0,0,1-1.764-1.764V61.863A1.768,1.768,0,0,1,2.913,60.1h9.41a1.768,1.768,0,0,1,1.764,1.764v1.886a.577.577,0,1,0,1.154,0V61.863a2.919,2.919,0,0,0-2.913-2.913H2.913A2.916,2.916,0,0,0,0,61.863Z" transform="translate(0 -58.95)"/><path class="a" d="M214.7,157.8a.578.578,0,0,0,.816,0l3.936-3.936a.572.572,0,0,0,0-.812l-3.936-3.936a.574.574,0,0,0-.812.812l2.955,2.955H206.877a.577.577,0,0,0,0,1.154h10.78L214.7,157A.566.566,0,0,0,214.7,157.8Z" transform="translate(-196.622 -144.728)"/></g></g></svg>