<svg xmlns="http://www.w3.org/2000/svg" width="25.762" height="28.679" viewBox="0 0 25.762 28.679"><defs><style>.a{fill:#01b0f1;}</style></defs><g transform="translate(-24.004 0)"><g transform="translate(25.948 16.04)"><g transform="translate(0)"><path class="a" d="M56.49,264a.486.486,0,0,0-.486.486v1.944a.486.486,0,1,0,.972,0v-1.944A.486.486,0,0,0,56.49,264Z" transform="translate(-56.004 -264.002)"/></g></g><g transform="translate(27.892 17.012)"><g transform="translate(0)"><path class="a" d="M88.49,280a.486.486,0,0,0-.486.486v1.944a.486.486,0,1,0,.972,0v-1.944A.486.486,0,0,0,88.49,280Z" transform="translate(-88.004 -280.002)"/></g></g><g transform="translate(40.044 18.956)"><path class="a" d="M294.078,312.666a.486.486,0,0,0-.544.8,2.916,2.916,0,1,1-1.63-.5.486.486,0,1,0,0-.972,3.888,3.888,0,1,0,2.175.664Z" transform="translate(-288.016 -312.002)"/></g><g transform="translate(24.004 0)"><g transform="translate(0 0)"><path class="a" d="M49.536,21.23a5.83,5.83,0,0,0-3.173-3.684V6.805a.486.486,0,0,0-.239-.418L35.431.068a.486.486,0,0,0-.495,0L24.243,6.387c-.01.006-.017.015-.027.021l-.029.022a.479.479,0,0,0-.107.119s-.006.005-.008.009v0a.486.486,0,0,0-.055.159.43.43,0,0,1-.006.043A.425.425,0,0,0,24,6.805V19.442a.486.486,0,0,0,.239.418L34.936,26.18l.039.017.041.017a.434.434,0,0,0,.334,0l.041-.017c.013-.006.026-.009.039-.017l2.9-1.715a5.83,5.83,0,0,0,11.2-3.234ZM35.183,1.051l2.527,1.494L33.963,4.759a.486.486,0,1,0,.495.837l4.209-2.485L41.194,4.6l-9.738,5.752L28.929,8.863,33,6.458a.486.486,0,0,0-.495-.837L27.974,8.3,25.446,6.805ZM30.971,11.2v3.245L28.46,12.961V9.716Zm7.321,10.143a5.922,5.922,0,0,0-.16,2.112l-2.462,1.456V23.331a.486.486,0,0,0-.972,0v1.579l-9.721-5.744V7.657l2.511,1.484v4.1a.486.486,0,0,0,.239.419l3.483,2.058a.486.486,0,0,0,.733-.418V11.773L34.7,13.4v7.985a.486.486,0,1,0,.972,0V13.4L44.478,8.2a.486.486,0,1,0-.495-.837l-8.8,5.2-2.77-1.638L42.15,5.168l3.24,1.915V17.207A5.809,5.809,0,0,0,38.292,21.342Zm5.641,6.363a4.861,4.861,0,1,1,4.86-4.861A4.86,4.86,0,0,1,43.932,27.705Z" transform="translate(-24.004 0)"/></g></g><g transform="translate(41.994 21.393)"><path class="a" d="M323.83,352.236a.486.486,0,0,0-.675,0l-1.844,1.844-.385-.385a.486.486,0,0,0-.687.687l.729.729a.486.486,0,0,0,.687,0l2.187-2.187A.486.486,0,0,0,323.83,352.236Z" transform="translate(-320.102 -352.1)"/></g></g></svg>