<svg xmlns="http://www.w3.org/2000/svg" width="47.676" height="41.834" viewBox="0 0 47.676 41.834"><defs><style>.a{fill:#fff;}</style></defs><g transform="translate(0 -0.101)"><path class="a" d="M47.568,29.977a3.158,3.158,0,0,0-2.577-2.287V9.573H46.57a.789.789,0,0,0,.789-.789V.891A.789.789,0,0,0,46.57.1H11.84a.789.789,0,0,0-.789.789V8.784a.789.789,0,0,0,.789.789h1.579V25.36h-.789A10.165,10.165,0,0,0,7.1,26.977V22.992a.789.789,0,0,0-.789-.789H.789A.789.789,0,0,0,0,22.992V41.146a.789.789,0,0,0,.789.789H6.314a.789.789,0,0,0,.789-.789V37.161a10.175,10.175,0,0,0,5.525,1.617H25.59a10.394,10.394,0,0,0,2.659-.351l17.09-4.578a3.17,3.17,0,0,0,2.23-3.873ZM12.629,1.68H45.781V7.995H12.629ZM15,9.573H43.413V27.825l-9.161,2.457a3.173,3.173,0,0,0-2.088-1.833L21.529,25.6a7.174,7.174,0,0,0-1.835-.237H15ZM5.525,40.357H1.579V23.781H5.525Zm39.4-8.032L27.842,36.9a8.785,8.785,0,0,1-2.253.3H12.629a8.623,8.623,0,0,1-5.21-1.737L7.1,35.226V28.912l.316-.237a8.618,8.618,0,0,1,5.21-1.736h7.065a5.579,5.579,0,0,1,1.429.185l10.632,2.85a1.592,1.592,0,0,1,1.16,1.359.771.771,0,0,0,.032.1.778.778,0,0,0-.021.1,1.345,1.345,0,0,1-.052.38,1.579,1.579,0,0,1-1.522,1.167,1.557,1.557,0,0,1-.411-.052l-6.709-1.8a.789.789,0,1,0-.409,1.524l6.709,1.8a3.21,3.21,0,0,0,.822.106,3.152,3.152,0,0,0,3.038-2.319,2.828,2.828,0,0,0,.089-.484l9.623-2.58c.069-.017.143-.035.213-.047a1.579,1.579,0,0,1,1.728,1.161,1.542,1.542,0,0,1,.052.409,1.578,1.578,0,0,1-1.167,1.527Zm0,0"/><path class="a" d="M248.789,113.681h7.893a.789.789,0,0,0,0-1.579h-7.893a.789.789,0,1,0,0,1.579Zm0,0" transform="translate(-223.531 -100.95)"/></g></svg>