<svg xmlns="http://www.w3.org/2000/svg" width="19.763" height="23.688" viewBox="0 0 19.763 23.688"><defs><style>.a{fill:#01b0f1;}</style></defs><g transform="translate(0 0)"><path class="a" d="M92.737,11.411a5.521,5.521,0,0,0,4.034-1.672,5.521,5.521,0,0,0,1.671-4.034,5.521,5.521,0,0,0-1.672-4.034,5.7,5.7,0,0,0-8.068,0,5.521,5.521,0,0,0-1.672,4.034A5.521,5.521,0,0,0,88.7,9.739,5.522,5.522,0,0,0,92.737,11.411ZM89.685,2.653a4.316,4.316,0,0,1,6.1,0,4.125,4.125,0,0,1,1.265,3.052,4.125,4.125,0,0,1-1.265,3.052,4.315,4.315,0,0,1-6.1,0A4.124,4.124,0,0,1,88.42,5.705a4.124,4.124,0,0,1,1.265-3.052Zm0,0" transform="translate(-83.005)"/><path class="a" d="M19.715,254.089a14.093,14.093,0,0,0-.192-1.5,11.793,11.793,0,0,0-.368-1.5,7.435,7.435,0,0,0-.619-1.4,5.29,5.29,0,0,0-.933-1.216,4.113,4.113,0,0,0-1.34-.842,4.631,4.631,0,0,0-1.711-.31,1.737,1.737,0,0,0-.927.393c-.278.181-.6.391-.966.623a5.534,5.534,0,0,1-1.25.551,4.853,4.853,0,0,1-3.057,0,5.517,5.517,0,0,1-1.249-.55c-.359-.23-.685-.439-.967-.623a1.734,1.734,0,0,0-.927-.393,4.625,4.625,0,0,0-1.711.31,4.11,4.11,0,0,0-1.34.842,5.291,5.291,0,0,0-.933,1.216,7.449,7.449,0,0,0-.619,1.4,11.823,11.823,0,0,0-.368,1.5,14,14,0,0,0-.192,1.5c-.031.452-.047.923-.047,1.4a3.933,3.933,0,0,0,1.168,2.976,4.2,4.2,0,0,0,3.01,1.1H15.584a4.205,4.205,0,0,0,3.01-1.1,3.932,3.932,0,0,0,1.168-2.976c0-.477-.016-.948-.048-1.4Zm-2.078,3.369a2.831,2.831,0,0,1-2.053.715H4.178a2.831,2.831,0,0,1-2.053-.715,2.568,2.568,0,0,1-.737-1.97c0-.444.015-.882.044-1.3a12.623,12.623,0,0,1,.173-1.348,10.427,10.427,0,0,1,.324-1.327,6.063,6.063,0,0,1,.5-1.141,3.922,3.922,0,0,1,.685-.9,2.728,2.728,0,0,1,.892-.554,3.194,3.194,0,0,1,1.093-.211c.049.026.135.075.275.167.285.186.614.4.978.63a6.878,6.878,0,0,0,1.569.7,6.24,6.24,0,0,0,3.911,0,6.887,6.887,0,0,0,1.57-.7c.372-.238.692-.444.977-.63.14-.091.227-.141.275-.167a3.2,3.2,0,0,1,1.094.211,2.732,2.732,0,0,1,.891.554,3.911,3.911,0,0,1,.685.9,6.042,6.042,0,0,1,.5,1.141,10.4,10.4,0,0,1,.324,1.327,12.729,12.729,0,0,1,.173,1.348h0c.029.419.044.857.044,1.3a2.568,2.568,0,0,1-.737,1.97Zm0,0" transform="translate(0 -235.874)"/></g></svg>