<svg xmlns="http://www.w3.org/2000/svg" width="45.976" height="45.661" viewBox="0 0 45.976 45.661"><defs><style>.a{fill:#fff;}</style></defs><g transform="translate(0 -1.758)"><g transform="translate(8.958 26.6)"><path class="a" d="M101.808,278.4a2.046,2.046,0,1,0,2.046,2.046A2.049,2.049,0,0,0,101.808,278.4Zm0,2.743a.7.7,0,1,1,.7-.7A.7.7,0,0,1,101.808,281.145Z" transform="translate(-99.762 -278.402)"/></g><g transform="translate(16.424 34.868)"><path class="a" d="M196,375.219a.674.674,0,0,0-.642-.466H191.35l-1.239-3.812a.675.675,0,0,0-1.284,0l-1.239,3.812h-4.008a.675.675,0,0,0-.4,1.221l3.243,2.356-1.239,3.812a.675.675,0,0,0,1.038.754l3.243-2.356,3.243,2.356a.675.675,0,0,0,1.038-.754l-1.239-3.812,3.243-2.356A.674.674,0,0,0,196,375.219Zm-4.678,2.307a.675.675,0,0,0-.245.754l.748,2.3-1.959-1.423a.681.681,0,0,0-.793,0l-1.959,1.423.748-2.3a.675.675,0,0,0-.245-.754l-1.959-1.423h2.422a.675.675,0,0,0,.642-.466l.748-2.3.748,2.3a.675.675,0,0,0,.642.466h2.422Z" transform="translate(-182.906 -370.474)"/></g><g transform="translate(32.849 34.868)"><path class="a" d="M378.907,375.218a.675.675,0,0,0-.642-.466h-4.008l-1.239-3.812a.675.675,0,0,0-1.284,0l-1.239,3.812h-4.008a.675.675,0,0,0-.4,1.221l3.243,2.356-1.239,3.812a.675.675,0,0,0,1.038.754l3.243-2.356,3.243,2.356a.675.675,0,0,0,1.038-.754l-1.239-3.812,3.243-2.356A.674.674,0,0,0,378.907,375.218Zm-4.678,2.307a.675.675,0,0,0-.245.754l.748,2.3-1.959-1.423a.675.675,0,0,0-.793,0l-1.959,1.423.748-2.3a.675.675,0,0,0-.245-.754l-1.959-1.423h2.422a.675.675,0,0,0,.642-.466l.748-2.3.748,2.3a.675.675,0,0,0,.642.466h2.422Z" transform="translate(-365.813 -370.473)"/></g><g transform="translate(0 34.868)"><g transform="translate(0)"><path class="a" d="M13.094,375.219a.675.675,0,0,0-.642-.466H8.444L7.205,370.94a.675.675,0,0,0-1.284,0l-1.239,3.812H.675a.675.675,0,0,0-.4,1.221l3.243,2.356-1.239,3.812a.675.675,0,0,0,1.038.754l3.243-2.356L9.806,382.9a.675.675,0,0,0,1.038-.754l-1.239-3.812,3.243-2.356A.674.674,0,0,0,13.094,375.219Zm-4.678,2.307a.675.675,0,0,0-.245.754l.748,2.3L6.96,379.16a.681.681,0,0,0-.793,0l-1.959,1.423.748-2.3a.675.675,0,0,0-.245-.754L2.751,376.1H5.173a.675.675,0,0,0,.642-.466l.748-2.3.748,2.3a.675.675,0,0,0,.642.466h2.422Z" transform="translate(0 -370.474)"/></g></g><g transform="translate(5.758 1.758)"><g transform="translate(0 0)"><path class="a" d="M98.881,18.581a3.057,3.057,0,0,0-1.914-5.441H86.113a12.388,12.388,0,0,0,.949-3.414c.517-3.62-.264-5.541-1.011-6.515A3.6,3.6,0,0,0,83.6,1.768,1.438,1.438,0,0,0,82,3.146c-.126,1.3-.589,4.859-1.251,6.183-1.7,3.4-5.755,5.429-7.008,5.99a2.492,2.492,0,0,0-1.629-.6H66.629a2.506,2.506,0,0,0-2.5,2.5V30.932a2.506,2.506,0,0,0,2.5,2.5h5.486a2.5,2.5,0,0,0,1.862-.832,6.389,6.389,0,0,0,3.449.951H95.061a3.056,3.056,0,0,0,2.295-5.077,3.056,3.056,0,0,0,.953-4.766,3.056,3.056,0,0,0,.573-5.13ZM72.115,32.086H66.629a1.155,1.155,0,0,1-1.154-1.154V17.217a1.155,1.155,0,0,1,1.154-1.154h5.486a1.15,1.15,0,0,1,.823.347V31.459a.672.672,0,0,0,.042.234A1.151,1.151,0,0,1,72.115,32.086Zm22.017-12.83h2.835a1.708,1.708,0,0,1,0,3.416H94.132a.675.675,0,1,0,0,1.35h1.882a1.708,1.708,0,0,1,0,3.416h-2.4a.675.675,0,0,0,0,1.35h1.446a1.708,1.708,0,0,1,0,3.417H77.426a4.992,4.992,0,0,1-2.85-.817,2.5,2.5,0,0,0,.042-.455V17.217a2.493,2.493,0,0,0-.117-.757c1.581-.726,5.629-2.871,7.458-6.528.915-1.829,1.371-6.487,1.39-6.684,0-.021,0-.043,0-.064a.074.074,0,0,1,.026-.058.067.067,0,0,1,.055-.018,2.269,2.269,0,0,1,1.547.923c.589.769,1.2,2.348.746,5.5a8.657,8.657,0,0,1-1.294,3.852.681.681,0,0,0,.522,1.1H96.968a1.708,1.708,0,0,1,0,3.417H94.132a.675.675,0,1,0,0,1.349Z" transform="translate(-64.126 -1.758)"/></g></g></g></svg>