<svg xmlns="http://www.w3.org/2000/svg" width="51.539" height="57" viewBox="0 0 51.539 57"><defs><style>.a{fill:#fff;}</style></defs><g transform="translate(-0.499 0)"><path class="a" d="M53.507,79.45c-2.619-2.608-5.647-.167-5.647-.167V65.556a.835.835,0,1,0-1.669,0v14.9A45.507,45.507,0,0,1,40.5,84.363V59.647a2.086,2.086,0,0,1,2.083-2.083h1.526a2.086,2.086,0,0,1,2.083,2.083v2.491a.835.835,0,1,0,1.669,0V59.647a3.757,3.757,0,0,0-3.753-3.753H42.581a3.757,3.757,0,0,0-3.753,3.753V85.025a8.773,8.773,0,0,1-1.528.284v-17.6a3.776,3.776,0,0,0-3.772-3.772H32.039a3.776,3.776,0,0,0-3.772,3.772v8.507l-1.529.811V74.194a3.4,3.4,0,0,0-3.4-3.4H21.1a3.4,3.4,0,0,0-3.4,3.4v7.625l-2.726,1.447L7.326,85.454a5.276,5.276,0,0,0-3.657,6.4l.856,3.295a.835.835,0,1,0,1.616-.421l-.856-3.294a3.586,3.586,0,0,1,2.5-4.375l7-2L20.045,99.1a3.74,3.74,0,0,1-2.486,4.611l-5.289,1.2A3.462,3.462,0,0,1,8.134,102.4L7.06,98.264a.835.835,0,1,0-1.616.42l1.074,4.132a5.121,5.121,0,0,0,4.961,3.855,40.931,40.931,0,0,0,6.45-1.332,5.145,5.145,0,0,0,3.9-6.081l18.3-4.48A10.53,10.53,0,0,0,44.278,92.7l8.905-7.317a3.961,3.961,0,0,0,.324-5.932ZM32.039,65.6h1.489a2.1,2.1,0,0,1,2.1,2.1V85.351l-5.269,0c-.484,0-.149-.324-.123-.346l1.517-1.229A7.936,7.936,0,0,0,34.5,79.035a3.311,3.311,0,0,0-4.566-3.7V67.707a2.1,2.1,0,0,1,2.1-2.1Zm-12.662,8.59A1.728,1.728,0,0,1,21.1,72.468h2.24a1.728,1.728,0,0,1,1.726,1.726v3.717l-5.693,3.022V74.194Zm32.746,9.9-8.906,7.317a8.84,8.84,0,0,1-3.491,1.747L21.292,97.669l-4.958-13.23L30.49,76.925A1.641,1.641,0,0,1,32.867,78.7,6.313,6.313,0,0,1,30.7,82.476l-1.517,1.229a1.864,1.864,0,0,0,1.173,3.313l6.083,0h0a10.411,10.411,0,0,0,6.019-1.9l6.8-4.781a2.352,2.352,0,0,1,3.047.281,2.317,2.317,0,0,1-.189,3.475Zm0,0" transform="translate(-2.665 -49.672)"/><path class="a" d="M70.9,422.528a3.289,3.289,0,1,0-3.289,3.289A3.293,3.293,0,0,0,70.9,422.528Zm-4.909,0a1.619,1.619,0,1,1,1.619,1.619A1.621,1.621,0,0,1,65.99,422.528Zm0,0" transform="translate(-56.717 -372.565)"/><path class="a" d="M4.889,26.215,17.026,13.984l2.73,1.412a2.568,2.568,0,0,0,2.962-.431l6.607-6.36s-.182,3.266,2.569,3.266A2.572,2.572,0,0,0,34.462,9.3V2.568c0-.008,0-.016,0-.024A2.431,2.431,0,0,0,31.893,0H25.217a2.571,2.571,0,0,0-2.568,2.568c0,2.823,2.873,2.568,2.873,2.568l-5.04,4.851-2.77-1.432a2.559,2.559,0,0,0-3,.472L1.243,22.6a2.571,2.571,0,0,0,.014,3.633,2.532,2.532,0,0,0,3.632-.014ZM2.428,23.773,15.893,10.2a.759.759,0,0,1,1.051-.165l3.3,1.707a.835.835,0,0,0,.963-.14l6.963-6.7a.835.835,0,0,0-.579-1.436H25.217a.9.9,0,0,1,0-1.8h6.677a.785.785,0,0,1,.9.893c0,.007,0,.015,0,.023V9.3a.9.9,0,0,1-1.8,0V6.643a.835.835,0,0,0-1.414-.6L21.56,13.763a.9.9,0,0,1-1.036.151L17.249,12.22a.836.836,0,0,0-.976.154L3.7,25.039a.861.861,0,0,1-1.271,0,.9.9,0,0,1,0-1.271Zm0,0" transform="translate(0)"/></g></svg>