<svg xmlns="http://www.w3.org/2000/svg" width="42.25" height="51.046" viewBox="0 0 42.25 51.046"><defs><style>.a{fill:#242424;}</style></defs><path class="a" d="M60.23,48.914,57.124,14.322A1.832,1.832,0,0,0,55.3,12.654H48.893V9.765a9.764,9.764,0,1,0-19.528,0v2.889h-6.41a1.832,1.832,0,0,0-1.825,1.668L18.012,49.05a1.832,1.832,0,0,0,1.825,2H58.422a1.832,1.832,0,0,0,1.832-1.832A1.865,1.865,0,0,0,60.23,48.914ZM33.03,9.765a6.1,6.1,0,1,1,12.2,0v2.889H33.03ZM21.841,47.382l2.789-31.064h4.735v3.276a1.832,1.832,0,0,0,3.664,0V16.318h12.2v3.276a1.832,1.832,0,1,0,3.664,0V16.318h4.73l2.789,31.064H21.841Z" transform="translate(-18.005)"/></svg>