<svg xmlns="http://www.w3.org/2000/svg" width="55.104" height="55.104" viewBox="0 0 55.104 55.104"><defs><style>.a{fill:#92a45c;}</style></defs><g transform="translate(47.757 11.021)"><path class="a" d="M447.408,102.4a3.674,3.674,0,1,0,3.674,3.674A3.677,3.677,0,0,0,447.408,102.4Zm0,5.51a1.837,1.837,0,1,1,1.837-1.837A1.839,1.839,0,0,1,447.408,107.91Z" transform="translate(-443.734 -102.4)"/></g><g transform="translate(0 41.328)"><path class="a" d="M3.674,384a3.674,3.674,0,1,0,3.674,3.674A3.677,3.677,0,0,0,3.674,384Zm0,5.51a1.837,1.837,0,1,1,1.837-1.837A1.839,1.839,0,0,1,3.674,389.51Z" transform="translate(0 -384)"/></g><g transform="translate(40.409 8.265)"><path class="a" d="M384.7,80.709l-7.923-3.825a.918.918,0,1,0-.8,1.654l7.923,3.825a.918.918,0,0,0,.8-1.654Z" transform="translate(-375.463 -76.792)"/></g><g transform="translate(37.654 47.757)"><path class="a" d="M353.541,443.733a3.674,3.674,0,1,0,3.674,3.674A3.677,3.677,0,0,0,353.541,443.733Zm0,5.51a1.837,1.837,0,1,1,1.837-1.837A1.839,1.839,0,0,1,353.541,449.243Z" transform="translate(-349.867 -443.733)"/></g><g transform="translate(30.307 45.001)"><path class="a" d="M290.836,422.041l-7.923-3.825a.918.918,0,0,0-.8,1.654l7.923,3.825a.918.918,0,1,0,.8-1.654Z" transform="translate(-281.596 -418.124)"/></g><g transform="translate(23.878 24.797)"><path class="a" d="M225.541,230.4a3.674,3.674,0,1,0,3.674,3.674A3.677,3.677,0,0,0,225.541,230.4Zm0,5.51a1.837,1.837,0,1,1,1.837-1.837A1.839,1.839,0,0,1,225.541,235.91Z" transform="translate(-221.867 -230.4)"/></g><g transform="translate(18.368 21.124)"><path class="a" d="M178.234,201.208l-6.086-4.744a.919.919,0,1,0-1.13,1.449l6.086,4.744a.919.919,0,1,0,1.13-1.449Z" transform="translate(-170.664 -196.272)"/></g><g transform="translate(33.981 23.878)"><path class="a" d="M325.835,221.867a10.1,10.1,0,1,0,10.1,10.1A10.114,10.114,0,0,0,325.835,221.867Zm0,18.368a8.266,8.266,0,1,1,8.266-8.266A8.274,8.274,0,0,1,325.835,240.235Z" transform="translate(-315.733 -221.867)"/></g><g transform="translate(40.41 27.552)"><path class="a" d="M379.141,256a3.674,3.674,0,1,0,3.674,3.674A3.677,3.677,0,0,0,379.141,256Zm0,5.51a1.837,1.837,0,1,1,1.837-1.837A1.839,1.839,0,0,1,379.141,261.51Z" transform="translate(-375.467 -256)"/></g><g transform="translate(38.573 36.736)"><path class="a" d="M366.575,341.333h-5.328A2.812,2.812,0,0,0,358.4,344.1v2.421a.919.919,0,0,0,.458.8,10.051,10.051,0,0,0,10.1,0,.917.917,0,0,0,.458-.794V344.1A2.812,2.812,0,0,0,366.575,341.333Zm1.009,4.643a8.327,8.327,0,0,1-7.347,0V344.1a.975.975,0,0,1,1.009-.933h5.328a.975.975,0,0,1,1.009.933v1.873Z" transform="translate(-358.4 -341.333)"/></g><g transform="translate(11.939 34.899)"><path class="a" d="M121.035,324.267a10.1,10.1,0,1,0,10.1,10.1A10.114,10.114,0,0,0,121.035,324.267Zm0,18.368a8.266,8.266,0,1,1,8.266-8.266A8.275,8.275,0,0,1,121.035,342.635Z" transform="translate(-110.933 -324.267)"/></g><g transform="translate(18.368 38.573)"><path class="a" d="M174.341,358.4a3.674,3.674,0,1,0,3.674,3.674A3.677,3.677,0,0,0,174.341,358.4Zm0,5.51a1.837,1.837,0,1,1,1.837-1.837A1.839,1.839,0,0,1,174.341,363.91Z" transform="translate(-170.667 -358.4)"/></g><g transform="translate(16.531 47.757)"><path class="a" d="M161.775,443.733h-5.329A2.812,2.812,0,0,0,153.6,446.5v2.421a.919.919,0,0,0,.458.8,10.051,10.051,0,0,0,10.1,0,.917.917,0,0,0,.458-.794V446.5A2.812,2.812,0,0,0,161.775,443.733Zm1.009,4.643a8.327,8.327,0,0,1-7.347,0V446.5a.975.975,0,0,1,1.009-.933h5.329a.975.975,0,0,1,1.009.933v1.873Z" transform="translate(-153.6 -443.733)"/></g><g transform="translate(0 11.939)"><path class="a" d="M10.1,110.933a10.1,10.1,0,1,0,10.1,10.1A10.114,10.114,0,0,0,10.1,110.933Zm0,18.368a8.266,8.266,0,1,1,8.266-8.266A8.275,8.275,0,0,1,10.1,129.3Z" transform="translate(0 -110.933)"/></g><g transform="translate(6.429 15.613)"><path class="a" d="M63.408,145.067a3.674,3.674,0,1,0,3.674,3.674A3.677,3.677,0,0,0,63.408,145.067Zm0,5.51a1.837,1.837,0,1,1,1.837-1.837A1.839,1.839,0,0,1,63.408,150.577Z" transform="translate(-59.734 -145.067)"/></g><g transform="translate(4.592 24.797)"><path class="a" d="M50.842,230.4H45.513a2.812,2.812,0,0,0-2.846,2.769v2.421a.919.919,0,0,0,.458.8,10.051,10.051,0,0,0,10.1,0,.918.918,0,0,0,.458-.794V233.17A2.812,2.812,0,0,0,50.842,230.4Zm1.009,4.643a8.328,8.328,0,0,1-7.347,0V233.17a.975.975,0,0,1,1.009-.933h5.329a.975.975,0,0,1,1.009.933v1.873Z" transform="translate(-42.667 -230.4)"/></g><g transform="translate(22.042)"><path class="a" d="M214.9,0A10.1,10.1,0,1,0,225,10.1,10.114,10.114,0,0,0,214.9,0Zm0,18.368a8.266,8.266,0,1,1,8.266-8.266A8.275,8.275,0,0,1,214.9,18.368Z" transform="translate(-204.8)"/></g><g transform="translate(28.47 3.674)"><path class="a" d="M268.208,34.133a3.674,3.674,0,1,0,3.674,3.674A3.677,3.677,0,0,0,268.208,34.133Zm0,5.51a1.837,1.837,0,1,1,1.837-1.837A1.839,1.839,0,0,1,268.208,39.643Z" transform="translate(-264.534 -34.133)"/></g><g transform="translate(26.634 12.858)"><path class="a" d="M255.642,119.467h-5.328a2.812,2.812,0,0,0-2.846,2.769v2.421a.919.919,0,0,0,.458.8,10.051,10.051,0,0,0,10.1,0,.918.918,0,0,0,.458-.794v-2.421A2.812,2.812,0,0,0,255.642,119.467Zm1.009,4.643a8.328,8.328,0,0,1-7.347,0v-1.873a.975.975,0,0,1,1.009-.933h5.328a.975.975,0,0,1,1.009.933v1.873Z" transform="translate(-247.467 -119.467)"/></g><g transform="translate(15.678 9.184)"><path class="a" d="M153.652,85.654a.92.92,0,0,0-1.295-.1L145.993,91a.918.918,0,1,0,1.194,1.4l6.365-5.446A.918.918,0,0,0,153.652,85.654Z" transform="translate(-145.671 -85.333)"/></g><g transform="translate(36.736 16.532)"><path class="a" d="M348.5,161.325l-5.51-7.347a.918.918,0,0,0-1.47,1.1l5.51,7.347a.918.918,0,0,0,1.469-1.1Z" transform="translate(-341.333 -153.61)"/></g><g transform="translate(29.579 36.651)"><path class="a" d="M281.616,340.907a.919.919,0,0,0-1.286-.184l-5.13,3.847a.918.918,0,0,0,1.1,1.468l5.13-3.847A.917.917,0,0,0,281.616,340.907Z" transform="translate(-274.833 -340.54)"/></g><g transform="translate(5.51 44.083)"><path class="a" d="M58.547,409.6H52.118a.918.918,0,0,0,0,1.837h6.429a.918.918,0,0,0,0-1.837Z" transform="translate(-51.2 -409.6)"/></g><g transform="translate(6.429)"><path class="a" d="M63.407,0A3.674,3.674,0,1,0,67.08,3.674,3.677,3.677,0,0,0,63.407,0Zm0,5.51a1.837,1.837,0,1,1,1.837-1.837A1.839,1.839,0,0,1,63.407,5.51Z" transform="translate(-59.733)"/></g><g transform="translate(9.184 5.51)"><path class="a" d="M86.252,51.2a.918.918,0,0,0-.918.918v6.429a.918.918,0,1,0,1.837,0V52.118A.918.918,0,0,0,86.252,51.2Z" transform="translate(-85.334 -51.2)"/></g></svg>