<svg xmlns="http://www.w3.org/2000/svg" width="61.771" height="39.074" viewBox="0 0 61.771 39.074"><defs><style>.a{fill:#fff;}</style></defs><g transform="translate(0 -94.062)"><g transform="translate(0 94.062)"><g transform="translate(0 0)"><path class="a" d="M57.447,110.627l-1.6-6.4a.967.967,0,0,0,.766-.946v-1.032a4.067,4.067,0,0,0-4.062-4.062H45.264V96.061a2,2,0,0,0-2-2H6.125a2,2,0,0,0-2,2V113.6a.967.967,0,0,0,1.934,0V96.061A.064.064,0,0,1,6.125,96h37.14a.064.064,0,0,1,.064.064V113.6a.967.967,0,0,0,1.934,0v-1.1H56.679a3.165,3.165,0,0,1,3.006,2.192H56.677a.967.967,0,0,0-.967.967v2.063a3.034,3.034,0,0,0,3.031,3.031h1.1v4.256H57.308a6.124,6.124,0,0,0-11.578,0h-.466v-7.286a.967.967,0,0,0-1.934,0v7.286H23.263a6.124,6.124,0,0,0-11.578,0H6.125a.064.064,0,0,1-.064-.064V122.82h4.191a.967.967,0,1,0,0-1.934H.967a.967.967,0,1,0,0,1.934H4.127v2.128a2,2,0,0,0,2,2H11.35c0,.021,0,.043,0,.064a6.125,6.125,0,0,0,12.251,0c0-.022,0-.043,0-.064h21.8c0,.021,0,.043,0,.064a6.125,6.125,0,0,0,12.251,0c0-.022,0-.043,0-.064H60.8a.967.967,0,0,0,.967-.967V115.662A5.1,5.1,0,0,0,57.447,110.627Zm-12.182-10.5h7.286a2.13,2.13,0,0,1,2.128,2.128v.064H45.265Zm0,10.446V104.25h8.594l1.58,6.319ZM17.474,131.2a4.191,4.191,0,1,1,4.191-4.191A4.2,4.2,0,0,1,17.474,131.2Zm34.045,0a4.191,4.191,0,1,1,4.191-4.191A4.2,4.2,0,0,1,51.519,131.2Zm8.318-12.38h-1.1a1.1,1.1,0,0,1-1.1-1.1v-1.1h2.192v2.192Z" transform="translate(0 -94.062)"/></g></g><g transform="translate(15.475 125.012)"><g transform="translate(0 0)"><path class="a" d="M130.266,350.6a2,2,0,1,0,2,2A2,2,0,0,0,130.266,350.6Z" transform="translate(-128.267 -350.597)"/></g></g><g transform="translate(49.52 125.012)"><g transform="translate(0 0)"><path class="a" d="M412.454,350.6a2,2,0,1,0,2,2A2,2,0,0,0,412.454,350.6Z" transform="translate(-410.455 -350.597)"/></g></g><g transform="translate(24.76 120.886)"><g transform="translate(0 0)"><path class="a" d="M220.638,316.393H206.194a.967.967,0,1,0,0,1.934h14.443a.967.967,0,1,0,0-1.934Z" transform="translate(-205.227 -316.393)"/></g></g><g transform="translate(2.063 116.759)"><g transform="translate(0 0)"><path class="a" d="M30.449,282.188H18.069a.967.967,0,0,0,0,1.934h12.38a.967.967,0,1,0,0-1.934Z" transform="translate(-17.102 -282.188)"/></g></g><g transform="translate(17.538 103.347)"><path class="a" d="M161.464,171.306a.967.967,0,0,0-1.368,0l-8.6,8.6-4.474-4.474a.967.967,0,0,0-1.368,1.368l5.158,5.158a.967.967,0,0,0,1.368,0l9.285-9.285A.967.967,0,0,0,161.464,171.306Z" transform="translate(-145.37 -171.023)"/></g></g></svg>