<svg xmlns="http://www.w3.org/2000/svg" width="35.965" height="35.965" viewBox="0 0 35.965 35.965"><g transform="translate(0)"><path d="M31.75,2.81H30.064V0h-2.81V2.81H8.71V0H5.9V2.81H4.215A4.219,4.219,0,0,0,0,7.024V31.75a4.219,4.219,0,0,0,4.215,4.215H31.75a4.219,4.219,0,0,0,4.215-4.215V7.024A4.219,4.219,0,0,0,31.75,2.81Zm1.4,28.94a1.406,1.406,0,0,1-1.4,1.4H4.215a1.406,1.406,0,0,1-1.4-1.4V13.206H33.155Zm0-21.354H2.81V7.024a1.406,1.406,0,0,1,1.4-1.4H5.9v2.81H8.71V5.62H27.255v2.81h2.81V5.62H31.75a1.406,1.406,0,0,1,1.4,1.4Z" transform="translate(0)"/></g><g transform="translate(5.166 15.625)"><g transform="translate(0 0)"><rect width="3" height="4" transform="translate(0.267 -0.193)"/></g></g><g transform="translate(10.871 15.625)"><g transform="translate(0 0)"><rect width="3" height="4" transform="translate(-0.438 -0.193)"/></g></g><g transform="translate(16.576 15.625)"><g transform="translate(0 0)"><rect width="3" height="4" transform="translate(-0.144 -0.193)"/></g></g><g transform="translate(22.281 15.625)"><g transform="translate(0 0)"><rect width="3" height="4" transform="translate(0.151 -0.193)"/></g></g><g transform="translate(27.987 15.625)"><g transform="translate(0 0)"><rect width="2" height="4" transform="translate(0.446 -0.193)"/></g></g><g transform="translate(5.166 21.331)"><g transform="translate(0 0)"><rect width="3" height="4" transform="translate(0.267 0.102)"/></g></g><g transform="translate(10.871 21.331)"><g transform="translate(0 0)"><rect width="3" height="4" transform="translate(-0.438 0.102)"/></g></g><g transform="translate(16.576 21.331)"><g transform="translate(0 0)"><rect width="3" height="4" transform="translate(-0.144 0.102)"/></g></g><g transform="translate(22.281 21.331)"><g transform="translate(0 0)"><rect width="3" height="4" transform="translate(0.151 0.102)"/></g></g><g transform="translate(5.166 27.036)"><g transform="translate(0 0)"><rect width="3" height="2" transform="translate(0.267 0.397)"/></g></g><g transform="translate(10.871 27.036)"><g transform="translate(0 0)"><rect width="3" height="2" transform="translate(-0.438 0.397)"/></g></g><g transform="translate(16.576 27.036)"><g transform="translate(0 0)"><rect width="3" height="2" transform="translate(-0.144 0.397)"/></g></g><g transform="translate(22.281 27.036)"><g transform="translate(0 0)"><rect width="3" height="2" transform="translate(0.151 0.397)"/></g></g><g transform="translate(27.987 21.331)"><g transform="translate(0 0)"><rect width="2" height="4" transform="translate(0.446 0.102)"/></g></g></svg>