<svg xmlns="http://www.w3.org/2000/svg" width="40.626" height="42.339" viewBox="0 0 40.626 42.339"><g transform="translate(-10.359 0.002)"><g transform="translate(10.359 -0.002)"><g transform="translate(0 0)"><path d="M49.026,21.716a1.241,1.241,0,0,1,0-1.1l1.579-3.23a3.675,3.675,0,0,0-1.586-4.881l-3.176-1.685a1.241,1.241,0,0,1-.645-.887l-.621-3.542a3.676,3.676,0,0,0-4.152-3.017l-3.56.5a1.241,1.241,0,0,1-1.043-.339l-2.584-2.5a3.675,3.675,0,0,0-5.132,0l-2.584,2.5a1.241,1.241,0,0,1-1.043.339l-3.56-.5a3.675,3.675,0,0,0-4.152,3.017l-.621,3.541a1.241,1.241,0,0,1-.645.887l-3.176,1.685a3.675,3.675,0,0,0-1.586,4.881l1.579,3.23a1.241,1.241,0,0,1,0,1.1l-1.579,3.23a3.675,3.675,0,0,0,1.586,4.881L15.5,31.512a1.241,1.241,0,0,1,.645.887l.621,3.542A3.673,3.673,0,0,0,20.39,39a3.776,3.776,0,0,0,.529-.037l3.56-.5a1.24,1.24,0,0,1,1.043.339l2.584,2.5a3.675,3.675,0,0,0,5.132,0l2.584-2.5a1.242,1.242,0,0,1,1.043-.339l3.56.5a3.675,3.675,0,0,0,4.152-3.017L45.2,32.4a1.241,1.241,0,0,1,.645-.887l3.176-1.685A3.675,3.675,0,0,0,50.6,24.946ZM47.874,27.67,44.7,29.355a3.667,3.667,0,0,0-1.905,2.622l-.621,3.542a1.244,1.244,0,0,1-1.4,1.021l-3.56-.5a3.666,3.666,0,0,0-3.083,1l-2.584,2.5a1.244,1.244,0,0,1-1.736,0l-2.584-2.5A3.663,3.663,0,0,0,24.662,36a3.749,3.749,0,0,0-.526.037l-3.56.5a1.244,1.244,0,0,1-1.4-1.021l-.621-3.542a3.667,3.667,0,0,0-1.905-2.622L13.469,27.67a1.243,1.243,0,0,1-.537-1.651l1.579-3.23a3.667,3.667,0,0,0,0-3.241l-1.579-3.23a1.243,1.243,0,0,1,.537-1.651l3.176-1.685a3.667,3.667,0,0,0,1.905-2.622l.621-3.542a1.243,1.243,0,0,1,1.4-1.021l3.56.5a3.667,3.667,0,0,0,3.083-1L29.8,2.8a1.244,1.244,0,0,1,1.736,0l2.584,2.5a3.667,3.667,0,0,0,3.083,1l3.56-.5a1.244,1.244,0,0,1,1.4,1.021l.621,3.542A3.667,3.667,0,0,0,44.7,12.98l3.176,1.685a1.243,1.243,0,0,1,.537,1.651l-1.579,3.23a3.667,3.667,0,0,0,0,3.241l1.579,3.23A1.244,1.244,0,0,1,47.874,27.67Z" transform="translate(-10.359 0.002)"/></g></g><g transform="translate(21.393 11.889)"><path d="M161.992,144.149a1.221,1.221,0,0,0-1.727,0l-16.116,16.116a1.221,1.221,0,1,0,1.727,1.727l16.116-16.116A1.221,1.221,0,0,0,161.992,144.149Z" transform="translate(-143.791 -143.791)"/></g><g transform="translate(21.311 10.179)"><path d="M147.279,123.116a4.477,4.477,0,1,0,4.477,4.477A4.482,4.482,0,0,0,147.279,123.116Zm0,6.512a2.035,2.035,0,1,1,2.035-2.035A2.037,2.037,0,0,1,147.279,129.628Z" transform="translate(-142.802 -123.116)"/></g><g transform="translate(31.079 23.203)"><path d="M265.4,280.61a4.477,4.477,0,1,0,4.477,4.477A4.482,4.482,0,0,0,265.4,280.61Zm0,6.512a2.035,2.035,0,1,1,2.035-2.035A2.037,2.037,0,0,1,265.4,287.122Z" transform="translate(-260.922 -280.61)"/></g></g></svg>