<svg xmlns="http://www.w3.org/2000/svg" width="36.89" height="39" viewBox="0 0 36.89 39"><g transform="translate(-12.29)"><path d="M48.537,6.628h-1.01V4.345a4.345,4.345,0,1,0-8.689,0V6.627H37.828a.644.644,0,0,0-.644.644V9.252H15.234a.644.644,0,0,0-.644.644V31.373L12.358,35.83a.642.642,0,0,0-.067.274s0,.01,0,.015v2.238a.644.644,0,0,0,.644.644H48.09a.644.644,0,0,0,.644-.644V36.118c0-.005,0-.01,0-.015a.641.641,0,0,0-.067-.273l-2.232-4.457V17.406h2.1a.644.644,0,0,0,.644-.644V7.271A.644.644,0,0,0,48.537,6.628ZM40.125,4.345a3.057,3.057,0,1,1,6.114,0V6.627H40.125Zm2.446,13.061v10.9H19.23l3.739-4.018a.644.644,0,0,0-.943-.877l-3.574,3.84V25.084L29.59,13.114h2.018L26.17,18.959a.644.644,0,1,0,.942.877l6.255-6.722h3.818v3.648a.644.644,0,0,0,.644.644h4.743ZM18.452,23.194V13.114h9.379ZM47.446,37.713H13.578v-.951H47.446v.951Zm-33.47-2.238,1.655-3.305H45.392l1.655,3.305Zm31.17-4.593H15.877V10.539H37.185v1.287H17.809a.644.644,0,0,0-.644.644V28.95a.644.644,0,0,0,.644.644H43.215a.644.644,0,0,0,.644-.644V17.406h1.287Zm2.747-14.763H38.472v-8.2h9.421v8.2Z" transform="translate(0)"/><path d="M350.45,108.659v1.564a.644.644,0,1,0,1.287,0v-1.564a1.982,1.982,0,1,0-1.287,0Zm.644-2.569a.695.695,0,1,1-.695.695A.7.7,0,0,1,351.093,106.089Z" transform="translate(-307.911 -95.807)"/><path d="M144.114,238.466l-.906.974a.644.644,0,1,0,.942.877l.906-.974a.644.644,0,1,0-.942-.877Z" transform="translate(-119.523 -217.81)"/></g></svg>