<svg xmlns="http://www.w3.org/2000/svg" width="50.139" height="50.195" viewBox="0 0 50.139 50.195"><defs><style>.a{fill:#fff;}</style></defs><g transform="translate(-0.291)"><g transform="translate(0.292 27.432)"><g transform="translate(0)"><path class="a" d="M49.768,281.543a4.212,4.212,0,0,0-3.058-1.724,3.035,3.035,0,0,0-2.463.92c-.137.145-.284.3-.44.473a4.191,4.191,0,0,0-2.5-1.1,3.035,3.035,0,0,0-2.463.92c-1.355,1.434-3.753,4.235-5.637,6.465a3.9,3.9,0,0,0-.787-.355c-.9-.388-13.312-5.689-18.814-5.689-8.887,0-12.97,4.777-13.14,4.98a.737.737,0,0,0,1.131.945,11.49,11.49,0,0,1,2.911-2.228,18.36,18.36,0,0,1,9.1-2.223c5.286,0,18.135,5.527,18.264,5.582a4.2,4.2,0,0,1,.7.324,2.385,2.385,0,0,1,.539.495,2.405,2.405,0,0,1-.855,3.684,2.493,2.493,0,0,1-1.764.112l-8.039-2.214a.737.737,0,1,0-.391,1.42l8.028,2.211a3.883,3.883,0,0,0,5.02-3.533l2.156-.227a.737.737,0,0,0,.489-.261c.053-.064,5.34-6.411,7.57-8.771.927-.982,2.582-.286,3.251.649,1.029,1.438-.25,3.008-.666,3.455-2.047,2.2-5.8,6.72-6.474,7.536l-15.275,7.637L18.3,297.718a.737.737,0,0,0-.572,1.358l8.171,3.44a.742.742,0,0,0,.615-.02l15.717-7.859a.736.736,0,0,0,.239-.19c.043-.052,4.339-5.254,6.515-7.589C50.584,285.141,50.885,283.1,49.768,281.543Zm-12.96,7.806-1.92.2a3.934,3.934,0,0,0-.58-1.072c1.6-1.9,4.212-4.956,5.607-6.433a1.578,1.578,0,0,1,1.291-.462,2.722,2.722,0,0,1,1.615.724C40.612,284.8,37.6,288.4,36.809,289.349Z" transform="translate(-0.297 -279.811)"/></g></g><g transform="translate(0.291 42.436)"><g transform="translate(0)"><path class="a" d="M14.673,434.23l-3.143-1.324a.736.736,0,0,0-.286-.058H1.028a.737.737,0,1,0,0,1.474H11.1l3.006,1.266a.737.737,0,0,0,.572-1.358Z" transform="translate(-0.291 -432.849)"/></g></g><g transform="translate(10.507)"><path class="a" d="M133.421,24.565l-3.137.448a14.883,14.883,0,1,0-22.74-1.108,14.99,14.99,0,0,0,7.7,5.277.737.737,0,0,0,.408-1.416,13.41,13.41,0,1,1,17.133-12.885,13.311,13.311,0,0,1-4.028,9.583V20.579a.737.737,0,1,0-1.474,0v5.5a.745.745,0,0,0,.841.729l5.5-.786a.737.737,0,1,0-.208-1.459Z" transform="translate(-104.498)"/></g><g transform="translate(21.509 7.858)"><path class="a" d="M220.6,86.442h-.786a1.621,1.621,0,0,1,0-3.242h3.143a.737.737,0,1,0,0-1.474h-1.621v-.835a.737.737,0,1,0-1.474,0v.835h-.049a3.094,3.094,0,0,0,0,6.189h.786a1.621,1.621,0,1,1,0,3.242h-3.143a.737.737,0,0,0,0,1.474h2.407v.835a.737.737,0,1,0,1.474,0v-.924a3.094,3.094,0,0,0-.737-6.1Z" transform="translate(-216.717 -80.155)"/></g></g></svg>