<svg xmlns="http://www.w3.org/2000/svg" width="41.58" height="46.288" viewBox="0 0 41.58 46.288"><defs><style>.a{fill:#fff;}</style></defs><g transform="translate(-24.004 0)"><g transform="translate(27.142 25.889)"><path class="a" d="M56.788,264a.785.785,0,0,0-.784.784v3.138a.784.784,0,0,0,1.569,0v-3.138A.785.785,0,0,0,56.788,264Z" transform="translate(-56.004 -264.002)"/></g><g transform="translate(30.28 27.458)"><g transform="translate(0)"><path class="a" d="M88.788,280a.785.785,0,0,0-.784.784v3.138a.784.784,0,0,0,1.569,0v-3.138A.785.785,0,0,0,88.788,280Z" transform="translate(-88.004 -280.002)"/></g></g><g transform="translate(49.893 30.596)"><path class="a" d="M297.8,313.074a.784.784,0,0,0-.879,1.3,4.707,4.707,0,1,1-2.631-.8.784.784,0,1,0,0-1.569,6.276,6.276,0,1,0,3.51,1.072Z" transform="translate(-288.016 -312.002)"/></g><g transform="translate(24.004 0)"><g transform="translate(0 0)"><path class="a" d="M65.213,34.266a9.41,9.41,0,0,0-5.122-5.945V10.983a.784.784,0,0,0-.385-.675L42.447.109a.785.785,0,0,0-.8,0l-17.259,10.2c-.016.009-.028.024-.044.035s-.031.024-.046.036a.773.773,0,0,0-.173.191c0,.005-.009.009-.013.014v.005a.785.785,0,0,0-.089.257.694.694,0,0,1-.009.069.686.686,0,0,0-.011.068v20.4a.784.784,0,0,0,.385.675l17.259,10.2a.648.648,0,0,0,.064.027.619.619,0,0,0,.066.028.7.7,0,0,0,.54,0,.631.631,0,0,0,.067-.028c.02-.009.042-.015.063-.027l4.684-2.768a9.41,9.41,0,0,0,18.082-5.22ZM42.047,1.7l4.079,2.411L40.078,7.681a.785.785,0,1,0,.8,1.352L47.67,5.021l4.079,2.411L36.033,16.716l-4.079-2.411,6.572-3.883a.785.785,0,1,0-.8-1.352l-7.315,4.323-4.08-2.411Zm-6.8,16.38v5.238l-4.053-2.4V15.681ZM47.064,34.447a9.558,9.558,0,0,0-.258,3.408L42.832,40.2V37.656a.784.784,0,1,0-1.569,0V40.2l-15.69-9.271V12.359l4.053,2.4v6.612a.784.784,0,0,0,.385.676l5.622,3.322a.785.785,0,0,0,1.184-.675V19l4.446,2.627V34.518a.784.784,0,1,0,1.569,0V21.63l14.218-8.4a.785.785,0,1,0-.8-1.351l-14.2,8.394-4.472-2.643L53.292,8.34l5.229,3.09V27.771A9.376,9.376,0,0,0,47.064,34.447Zm9.1,10.27a7.845,7.845,0,1,1,7.845-7.845A7.845,7.845,0,0,1,56.168,44.717Z" transform="translate(-24.004 0)"/></g></g><g transform="translate(53.04 34.528)"><g transform="translate(0)"><path class="a" d="M326.119,352.32a.785.785,0,0,0-1.09,0l-2.976,2.976-.622-.622a.784.784,0,0,0-1.109,1.109l1.177,1.177a.784.784,0,0,0,1.109,0l3.53-3.53A.785.785,0,0,0,326.119,352.32Z" transform="translate(-320.102 -352.1)"/></g></g></g></svg>