<svg xmlns="http://www.w3.org/2000/svg" width="39" height="43.408" viewBox="0 0 39 43.408"><defs><style>.a{fill:#fff;}</style></defs><g transform="translate(-26)"><g transform="translate(53.978 33.574)"><path class="a" d="M356.848,396a.848.848,0,1,0,.848.848A.848.848,0,0,0,356.848,396Z" transform="translate(-356 -396)"/></g><g transform="translate(26)"><g transform="translate(0)"><path class="a" d="M56.913,30.832l-4.03-1.343L51.437,26.6a9.286,9.286,0,0,0,2.513-4.912l.18-1.081h1.543a2.546,2.546,0,0,0,2.543-2.543V12.717a12.717,12.717,0,1,0-25.435,0v5.341a2.548,2.548,0,0,0,1.7,2.4v.994a2.546,2.546,0,0,0,2.543,2.543h.745a9.2,9.2,0,0,0,1.422,2.2c.12.138.245.272.374.4l-1.446,2.892-4.03,1.343A12.5,12.5,0,0,0,26,42.561a.848.848,0,0,0,.848.848h37.3A.848.848,0,0,0,65,42.561,12.5,12.5,0,0,0,56.913,30.832Zm-.392-12.774a.849.849,0,0,1-.848.848H54.38c.216-1.669.359-3.446.417-5.2,0-.049,0-.1,0-.146h1.72Zm-21.2.848a.849.849,0,0,1-.848-.848V13.565H36.2q0,.133.009.267v.009h0c.059,1.7.2,3.432.412,5.065H35.326Zm1.7,3.391a.849.849,0,0,1-.848-.848V20.6h.7l.18,1.082c.034.206.077.41.126.614Zm-.846-10.428H34.51a11.022,11.022,0,0,1,21.979,0H54.825a8.587,8.587,0,0,0-8.566-8.478H44.741A8.587,8.587,0,0,0,36.175,11.869Zm8.566-6.783h1.518a6.894,6.894,0,0,1,6.872,6.9c0,.267,0,.5-.007.71,0,0,0,.006,0,.008l-1.06-.152A13.623,13.623,0,0,1,44.4,8.727a.848.848,0,0,0-.6-.248,7.67,7.67,0,0,0-5.9,2.79A6.892,6.892,0,0,1,44.741,5.087ZM38.933,22.3a48.461,48.461,0,0,1-1.017-8.228l1.141-1.521a5.968,5.968,0,0,1,4.413-2.364,15.335,15.335,0,0,0,8.354,4.051l1.248.178c-.083,1.771-.254,3.548-.5,5.182v0c-.078.525-.139.864-.3,1.808A7.2,7.2,0,0,1,47.167,27.2a6.671,6.671,0,0,1-7.488-3.2h1.728a2.547,2.547,0,0,0,2.4,1.7h1.7a2.543,2.543,0,0,0,0-5.087H43.8a2.545,2.545,0,0,0-2.4,1.7Zm4.8,6.614a8.5,8.5,0,0,0,3.153.071l-1.5,1.584Zm.49,2.888-2.689,2.844a32.3,32.3,0,0,1-1.9-4.4l1.01-2.02Zm5.988-3.865,1.153,2.307a32.294,32.294,0,0,1-1.9,4.4l-2.878-2.878Zm-7.254-4.79A.848.848,0,0,1,43.8,22.3h1.7a.848.848,0,1,1,0,1.7H43.8A.849.849,0,0,1,42.956,23.146ZM27.73,41.713a10.714,10.714,0,0,1,6.893-9.272l3.569-1.189A33.987,33.987,0,0,0,40.6,36.486l0,.009h0a34,34,0,0,0,2.321,3.544l1.043,1.674Zm17.77-.756-1.15-1.846q-.019-.031-.041-.06A32.326,32.326,0,0,1,42.4,36.2L45.422,33l3.186,3.186a32.291,32.291,0,0,1-1.917,2.865C46.65,39.106,46.708,39.019,45.5,40.957Zm1.527.756,1.043-1.674a33.984,33.984,0,0,0,2.337-3.572l.012-.023,0,0a33.959,33.959,0,0,0,2.388-5.19l3.569,1.189a10.714,10.714,0,0,1,6.893,9.272H47.027Z" transform="translate(-26)"/></g></g><g transform="translate(56.957 35.192)"><path class="a" d="M394.9,418.178a8.476,8.476,0,0,0-2.4-2.914.848.848,0,0,0-1.034,1.344,6.771,6.771,0,0,1,1.917,2.328.848.848,0,0,0,1.517-.758Z" transform="translate(-391.139 -415.089)"/></g></g></svg>